HIERARCHY
ROOT Hips
{
	OFFSET -32.860001 56.121803 44.745396
	CHANNELS 6 Xposition Yposition Zposition Zrotation Xrotation Yrotation
	JOINT Chest
	{
		OFFSET -0.637402 0.831600 5.390099
		CHANNELS 6 Xposition Yposition Zposition Zrotation Xrotation Yrotation
		JOINT Chest2
		{
			OFFSET 0.000000 0.000000 4.429901
			CHANNELS 6 Xposition Yposition Zposition Zrotation Xrotation Yrotation
			JOINT Neck
			{
				OFFSET 0.000000 0.000000 10.301395
				CHANNELS 6 Xposition Yposition Zposition Zrotation Xrotation Yrotation
				JOINT Head
				{
					OFFSET 0.000000 0.000000 2.173897
					CHANNELS 6 Xposition Yposition Zposition Zrotation Xrotation Yrotation
					End Site
					{
						OFFSET 0.000000 0.000000 8.298004
					}
				}
			}
			JOINT LeftCollar
			{
				OFFSET 2.142401 -0.572701 5.717800
				CHANNELS 6 Xposition Yposition Zposition Zrotation Xrotation Yrotation
				JOINT LeftShoulder
				{
					OFFSET 5.674000 0.000000 0.000000
					CHANNELS 6 Xposition Yposition Zposition Zrotation Xrotation Yrotation
					JOINT LeftElbow
					{
						OFFSET 0.000000 0.000000 -12.238701
						CHANNELS 6 Xposition Yposition Zposition Zrotation Xrotation Yrotation
						JOINT LeftWrist
						{
							OFFSET 0.000000 0.000000 -10.253700
							CHANNELS 6 Xposition Yposition Zposition Zrotation Xrotation Yrotation
							End Site
							{
								OFFSET 0.000000 0.000000 -2.173901
							}
						}
					}
				}
			}
			JOINT RightCollar
			{
				OFFSET -2.882599 -1.580101 6.695801
				CHANNELS 6 Xposition Yposition Zposition Zrotation Xrotation Yrotation
				JOINT RightShoulder
				{
					OFFSET -4.235600 0.000000 0.000000
					CHANNELS 6 Xposition Yposition Zposition Zrotation Xrotation Yrotation
					JOINT RightElbow
					{
						OFFSET 0.000000 0.000000 -10.709900
						CHANNELS 6 Xposition Yposition Zposition Zrotation Xrotation Yrotation
						JOINT RightWrist
						{
							OFFSET 0.000000 0.000000 -11.716801
							CHANNELS 6 Xposition Yposition Zposition Zrotation Xrotation Yrotation
							End Site
							{
								OFFSET 0.000000 0.000000 -2.173901
							}
						}
					}
				}
			}
		}
	}
	JOINT LeftHip
	{
		OFFSET 2.279499 0.210400 -2.475502
		CHANNELS 6 Xposition Yposition Zposition Zrotation Xrotation Yrotation
		JOINT LeftKnee
		{
			OFFSET 0.000000 -0.000004 -20.742800
			CHANNELS 6 Xposition Yposition Zposition Zrotation Xrotation Yrotation
			JOINT LeftAnkle
			{
				OFFSET 0.000000 0.000000 -16.666000
				CHANNELS 6 Xposition Yposition Zposition Zrotation Xrotation Yrotation
				End Site
				{
					OFFSET 0.000000 -8.310898 0.000000
				}
			}
		}
	}
	JOINT RightHip
	{
		OFFSET -1.961899 0.232300 -2.727402
		CHANNELS 6 Xposition Yposition Zposition Zrotation Xrotation Yrotation
		JOINT RightKnee
		{
			OFFSET 0.000000 -0.000004 -20.526800
			CHANNELS 6 Xposition Yposition Zposition Zrotation Xrotation Yrotation
			JOINT RightAnkle
			{
				OFFSET 0.000000 0.000000 -16.867300
				CHANNELS 6 Xposition Yposition Zposition Zrotation Xrotation Yrotation
				End Site
				{
					OFFSET 0.000000 -7.186401 0.000000
				}
			}
		}
	}
}
MOTION
Frames: 5
Frame Time: 0.041667
77.351616 68.010399 19.961491 -53.016246 13.717103 -13.311587 -0.637403 0.831600 5.390095 69.850985 29.619706 -33.951436 0.000008 0.000000 4.429892 -58.531409 -1.124578 -2.097582 -0.000006 0.000003 10.301378 359.965395 29.118917 -7.768134 -0.000001 0.000001 2.173881 -359.724016 7.383562 2.729164 2.142393 -0.572701 5.717786 24.541684 36.015997 -32.955195 5.674002 -0.000005 -0.000010 113.209935 206.327311 63.793946 0.000001 0.000003 -12.238700 -124.614452 -159.677460 -147.170728 -0.000004 0.000000 -10.253696 -128.149867 26.044355 -58.016788 -2.882605 -1.580099 6.695776 0.068425 -49.538812 9.781464 -4.235600 0.000009 0.000000 30.443946 27.342895 60.095426 0.000008 0.000011 -10.709900 -21.447427 -33.581704 -40.105932 -0.000004 -0.000003 -11.716801 98.667294 22.729239 54.920731 2.279495 0.210404 -2.475502 134.883983 -46.538378 138.976687 -0.000012 0.000004 -20.742805 -118.876027 -11.724424 114.119026 -0.000009 -0.000004 -16.666004 61.853585 18.873568 39.013358 -1.961905 0.232296 -2.727394 -127.014867 -31.365321 -93.729429 0.000005 -0.000006 -20.526810 183.460630 3.026586 -157.839292 0.000000 0.000002 -16.867310 -58.763177 10.580748 -30.069648
77.344521 68.007599 19.955891 -53.081348 13.699979 -13.339345 -0.637395 0.831604 5.390100 69.891058 29.594947 -33.990368 0.000004 -0.000004 4.429901 -58.497743 -1.120955 -2.093209 0.000002 0.000003 10.301390 360.078967 28.939706 -7.809313 0.000002 0.000002 2.173897 -359.850074 7.340157 2.735966 2.142397 -0.572701 5.717803 24.427572 36.076946 -32.835496 5.674004 -0.000005 0.000006 113.281016 206.270142 63.800988 -0.000006 0.000004 -12.238691 -123.761375 -160.128799 -146.759879 -0.000001 0.000007 -10.253702 -128.978956 26.038500 -58.014971 -2.882590 -1.580104 6.695789 0.203952 -49.563981 10.073916 -4.235603 0.000001 0.000002 30.353928 27.252132 60.000343 0.000002 0.000023 -10.709888 -21.329055 -33.604749 -40.099354 -0.000001 -0.000002 -11.716795 98.490679 22.667996 55.064142 2.279503 0.210400 -2.475499 134.909869 -46.536814 138.959980 -0.000002 0.000004 -20.742800 -118.815416 -11.854212 114.144182 -0.000001 0.000003 -16.665998 61.993290 18.879398 39.196376 -1.961892 0.232298 -2.727394 -126.947672 -31.442858 -93.718433 -0.000003 -0.000006 -20.526804 183.533931 3.063745 -157.874481 -0.000005 0.000005 -16.867306 -58.698448 10.575050 -30.015809
77.338921 68.002701 19.950987 -53.147157 13.671222 -13.378268 -0.637403 0.831594 5.390100 69.946007 29.615810 -34.032763 0.000007 0.000003 4.429891 -58.501294 -1.107779 -2.091307 -0.000005 -0.000002 10.301384 360.197348 28.756722 -7.867780 -0.000010 0.000001 2.173912 -359.925725 7.286086 2.743328 2.142393 -0.572705 5.717793 24.400241 36.098052 -32.783634 5.674000 0.000001 -0.000023 113.343588 206.243641 63.821260 -0.000011 0.000009 -12.238703 -122.931589 -160.539785 -146.331202 -0.000010 0.000002 -10.253710 -129.838741 26.074944 -57.917265 -2.882602 -1.580117 6.695799 0.223446 -49.608487 10.150464 -4.235603 -0.000002 -0.000006 30.346507 27.256375 59.982680 0.000013 0.000011 -10.709896 -21.313061 -33.639935 -40.121890 -0.000009 0.000008 -11.716801 98.296148 22.570727 55.182232 2.279510 0.210389 -2.475504 134.900444 -46.529151 138.910352 -0.000005 0.000005 -20.742811 -118.766321 -11.957377 114.169884 -0.000004 0.000007 -16.666004 62.138288 18.887519 39.323131 -1.961899 0.232280 -2.727396 -126.888194 -31.527924 -93.705667 0.000012 -0.000005 -20.526798 183.609938 3.092422 -157.901570 -0.000009 0.000005 -16.867296 -58.634217 10.580168 -29.962500
77.334724 67.997498 19.945791 -53.210578 13.641780 -13.424306 -0.637390 0.831602 5.390097 70.007916 29.668470 -34.068239 0.000010 -0.000004 4.429901 -58.536039 -1.089537 -2.091464 0.000004 -0.000004 10.301406 360.240788 28.577564 -7.877059 0.000002 0.000000 2.173894 -359.896956 7.214167 2.739667 2.142412 -0.572708 5.717798 24.439916 36.081021 -32.789781 5.673991 -0.000011 -0.000017 113.388558 206.242084 63.858171 -0.000003 0.000005 -12.238700 -122.192316 -160.886267 -145.936431 -0.000009 -0.000005 -10.253706 -130.675794 26.149955 -57.760731 -2.882589 -1.580107 6.695792 0.173174 -49.657002 10.079845 -4.235601 -0.000005 -0.000010 30.392935 27.331456 60.008410 0.000000 0.000009 -10.709906 -21.373118 -33.688197 -40.151561 0.000000 0.000002 -11.716805 98.099268 22.452406 55.269641 2.279515 0.210405 -2.475504 134.867194 -46.501851 138.841504 -0.000012 -0.000007 -20.742798 -118.743208 -12.022174 114.200462 0.000009 -0.000002 -16.666000 62.260139 18.896043 39.405052 -1.961887 0.232297 -2.727396 -126.837624 -31.610877 -93.700415 0.000004 0.000001 -20.526804 183.680753 3.112003 -157.923304 -0.000001 0.000001 -16.867294 -58.574808 10.597045 -29.915754
77.332214 67.992889 19.939993 -53.268212 13.624360 -13.470571 -0.637399 0.831593 5.390091 70.068780 29.738753 -34.084410 0.000006 0.000004 4.429891 -58.605379 -1.066122 -2.093694 0.000001 -0.000003 10.301392 360.267999 28.394375 -7.892158 -0.000012 0.000002 2.173902 -359.837834 7.148368 2.752392 2.142401 -0.572711 5.717790 24.556308 36.028568 -32.853125 5.673991 -0.000005 0.000000 113.401200 206.256714 63.906986 -0.000007 -0.000001 -12.238700 -121.599921 -161.173859 -145.630193 0.000000 0.000005 -10.253702 -131.345016 26.233437 -57.643204 -2.882601 -1.580110 6.695781 0.081749 -49.721410 9.892556 -4.235604 -0.000001 0.000000 30.482864 27.478111 60.056002 0.000000 0.000005 -10.709898 -21.484889 -33.741510 -40.177157 -0.000006 0.000007 -11.716801 97.930624 22.335209 55.342865 2.279508 0.210391 -2.475505 134.827224 -46.446844 138.773721 -0.000010 -0.000001 -20.742792 -118.744300 -12.054150 114.240023 -0.000013 0.000005 -16.665998 62.359723 18.909401 39.448195 -1.961901 0.232289 -2.727407 -126.799115 -31.680149 -93.711753 0.000000 -0.000008 -20.526806 183.740982 3.123810 -157.940475 -0.000001 0.000003 -16.867300 -58.523404 10.631761 -29.874103
